<?xml version="1.0" encoding="utf-8"?>
<!-- Generator: Adobe Illustrator 18.1.1, SVG Export Plug-In . SVG Version: 6.00 Build 0)  -->
<svg version="1.1" id="Layer_1" xmlns="http://www.w3.org/2000/svg" xmlns:xlink="http://www.w3.org/1999/xlink" x="0px" y="0px"
	 viewBox="0 0 94.9 94.9" enable-background="new 0 0 94.9 94.9" xml:space="preserve">
<symbol  id="elg" viewBox="-82.5 -75.3 164.9 150.4">
	<path fill="#68BDD7" d="M12.4,27.7C12.4,1.5-8.8-19.8-35-19.8S-82.5,1.5-82.5,27.7S-61.2,75.1-35,75.1S12.4,53.9,12.4,27.7z"/>
	<g>
		<defs>
			<path id="SVGID_1_" d="M12.4,27.7C12.4,1.5-8.8-19.8-35-19.8S-82.5,1.5-82.5,27.7S-61.2,75.1-35,75.1S12.4,53.9,12.4,27.7z"/>
		</defs>
		<clipPath id="SVGID_2_">
			<use xlink:href="#SVGID_1_"  overflow="visible"/>
		</clipPath>
		<g opacity="0.1" clip-path="url(#SVGID_2_)">
			<path d="M-63.4,10.5h56.8l-27.8,48.8L-63.4,10.5z M-1,5h-68c-1.2,0-2.2,0.6-2.8,1.6c-0.6,1-0.6,2.2,0,3.2l34.7,58.4
				c0.6,1,1.6,1.6,2.8,1.6c1.1,0,2.2-0.6,2.8-1.6L1.8,9.8c0.6-1,0.6-2.2,0-3.2C1.2,5.6,0.1,5-1,5z"/>
			<path d="M-62.7,9.8h56.8l-27.8,48.8L-62.7,9.8z M-0.3,4.3h-68c-1.2,0-2.2,0.6-2.8,1.6c-0.6,1-0.6,2.2,0,3.2l34.7,58.4
				c0.6,1,1.6,1.6,2.8,1.6c1.1,0,2.2-0.6,2.8-1.6L2.5,9.1c0.6-1,0.6-2.2,0-3.2C1.9,4.9,0.8,4.3-0.3,4.3z"/>
			<path d="M-62,9.1h56.8L-33,57.9L-62,9.1z M0.4,3.6h-68c-1.2,0-2.2,0.6-2.8,1.6c-0.6,1-0.6,2.2,0,3.2l34.7,58.4
				c0.6,1,1.6,1.6,2.8,1.6c1.1,0,2.2-0.6,2.8-1.6L3.2,8.4c0.6-1,0.6-2.2,0-3.2C2.6,4.2,1.5,3.6,0.4,3.6z"/>
			<path d="M-61.3,8.4h56.8l-27.8,48.8L-61.3,8.4z M1.1,2.9h-68c-1.2,0-2.2,0.6-2.8,1.6c-0.6,1-0.6,2.2,0,3.2L-35,66.1
				c0.6,1,1.6,1.6,2.8,1.6c1.1,0,2.2-0.6,2.8-1.6L3.9,7.7c0.6-1,0.6-2.2,0-3.2C3.3,3.5,2.2,2.9,1.1,2.9z"/>
			<path d="M-60.6,7.7h56.8l-27.8,48.8L-60.6,7.7z M1.8,2.2h-68c-1.2,0-2.2,0.6-2.8,1.6c-0.6,1-0.6,2.2,0,3.2l34.7,58.4
				c0.6,1,1.6,1.6,2.8,1.6c1.1,0,2.2-0.6,2.8-1.6L4.6,7c0.6-1,0.6-2.2,0-3.2C4,2.8,2.9,2.2,1.8,2.2z"/>
			<path d="M-59.9,7H-3l-27.8,48.8L-59.9,7z M2.5,1.5h-68c-1.2,0-2.2,0.6-2.8,1.6c-0.6,1-0.6,2.2,0,3.2l34.7,58.4
				c0.6,1,1.6,1.6,2.8,1.6c1.1,0,2.2-0.6,2.8-1.6L5.3,6.3c0.6-1,0.6-2.2,0-3.2C4.7,2.1,3.6,1.5,2.5,1.5z"/>
			<path d="M-59.2,6.3h56.8l-27.8,48.8L-59.2,6.3z M3.2,0.8h-68c-1.2,0-2.2,0.6-2.8,1.6c-0.6,1-0.6,2.2,0,3.2L-32.8,64
				c0.6,1,1.6,1.6,2.8,1.6c1.1,0,2.2-0.6,2.8-1.6L6,5.6c0.6-1,0.6-2.2,0-3.2C5.4,1.4,4.3,0.8,3.2,0.8z"/>
			<path d="M-58.4,5.6h56.8l-27.8,48.8L-58.4,5.6z M3.9,0.1h-68c-1.2,0-2.2,0.6-2.8,1.6c-0.6,1-0.6,2.2,0,3.2l34.7,58.4
				c0.6,1,1.6,1.6,2.8,1.6c1.1,0,2.2-0.6,2.8-1.6L6.7,4.8c0.6-1,0.6-2.2,0-3.2C6.1,0.7,5,0.1,3.9,0.1z"/>
			<path d="M-57.7,4.9h56.8l-27.8,48.8L-57.7,4.9z M4.6-0.7h-68c-1.2,0-2.2,0.6-2.8,1.6c-0.6,1-0.6,2.2,0,3.2l34.7,58.4
				c0.6,1,1.6,1.6,2.8,1.6c1.1,0,2.2-0.6,2.8-1.6L7.4,4.1c0.6-1,0.6-2.2,0-3.2C6.8,0,5.8-0.7,4.6-0.7z"/>
			<path d="M-57,4.2h56.8L-28,53L-57,4.2z M5.3-1.4h-68c-1.2,0-2.2,0.6-2.8,1.6c-0.6,1-0.6,2.2,0,3.2l34.7,58.4
				c0.6,1,1.6,1.6,2.8,1.6c1.1,0,2.2-0.6,2.8-1.6L8.1,3.4c0.6-1,0.6-2.2,0-3.2C7.5-0.8,6.5-1.4,5.3-1.4z"/>
			<path d="M-56.3,3.5H0.5l-27.8,48.8L-56.3,3.5z M6-2.1h-68c-1.2,0-2.2,0.6-2.8,1.6c-0.6,1-0.6,2.2,0,3.2L-30,61.1
				c0.6,1,1.6,1.6,2.8,1.6c1.1,0,2.2-0.6,2.8-1.6L8.8,2.7c0.6-1,0.6-2.2,0-3.2C8.2-1.5,7.2-2.1,6-2.1z"/>
			<path d="M-55.6,2.8H1.2l-27.8,48.8L-55.6,2.8z M6.7-2.8h-68c-1.2,0-2.2,0.6-2.8,1.6c-0.6,1-0.6,2.2,0,3.2l34.7,58.4
				c0.6,1,1.6,1.6,2.8,1.6c1.1,0,2.2-0.6,2.8-1.6L9.5,2c0.6-1,0.6-2.2,0-3.2C8.9-2.2,7.9-2.8,6.7-2.8z"/>
			<path d="M-54.9,2.1H1.9l-27.8,48.8L-54.9,2.1z M7.4-3.5h-68c-1.2,0-2.2,0.6-2.8,1.6c-0.6,1-0.6,2.2,0,3.2l34.7,58.4
				c0.6,1,1.6,1.6,2.8,1.6c1.1,0,2.2-0.6,2.8-1.6L10.2,1.3c0.6-1,0.6-2.2,0-3.2C9.6-2.9,8.6-3.5,7.4-3.5z"/>
			<path d="M-54.2,1.4H2.6l-27.8,48.8L-54.2,1.4z M8.1-4.2h-68c-1.2,0-2.2,0.6-2.8,1.6c-0.6,1-0.6,2.2,0,3.2L-27.9,59
				c0.6,1,1.6,1.6,2.8,1.6c1.1,0,2.2-0.6,2.8-1.6L10.9,0.6c0.6-1,0.6-2.2,0-3.2C10.3-3.6,9.3-4.2,8.1-4.2z"/>
			<path d="M-53.5,0.7H3.3l-27.8,48.8L-53.5,0.7z M8.8-4.9h-68c-1.2,0-2.2,0.6-2.8,1.6c-0.6,1-0.6,2.2,0,3.2l34.7,58.4
				c0.6,1,1.6,1.6,2.8,1.6c1.1,0,2.2-0.6,2.8-1.6L11.6-0.1c0.6-1,0.6-2.2,0-3.2C11-4.3,10-4.9,8.8-4.9z"/>
			<path d="M-52.8,0H4l-27.8,48.8L-52.8,0z M9.5-5.6h-68c-1.2,0-2.2,0.6-2.8,1.6c-0.6,1-0.6,2.2,0,3.2l34.7,58.4
				c0.6,1,1.6,1.6,2.8,1.6c1.1,0,2.2-0.6,2.8-1.6L12.3-0.8c0.6-1,0.6-2.2,0-3.2C11.7-5,10.7-5.6,9.5-5.6z"/>
			<path d="M-52.1-0.7H4.7L-23.1,48L-52.1-0.7z M10.2-6.3h-68c-1.2,0-2.2,0.6-2.8,1.6c-0.6,1-0.6,2.2,0,3.2l34.7,58.4
				c0.6,1,1.6,1.6,2.8,1.6c1.1,0,2.2-0.6,2.8-1.6L13-1.5c0.6-1,0.6-2.2,0-3.2C12.4-5.7,11.4-6.3,10.2-6.3z"/>
			<path d="M-51.4-1.4H5.4l-27.8,48.8L-51.4-1.4z M10.9-7h-68c-1.2,0-2.2,0.6-2.8,1.6c-0.6,1-0.6,2.2,0,3.2l34.7,58.4
				c0.6,1,1.6,1.6,2.8,1.6c1.1,0,2.2-0.6,2.8-1.6L13.7-2.2c0.6-1,0.6-2.2,0-3.2C13.1-6.4,12.1-7,10.9-7z"/>
			<path d="M-50.7-2.1H6.1l-27.8,48.8L-50.7-2.1z M11.6-7.7h-68c-1.2,0-2.2,0.6-2.8,1.6c-0.6,1-0.6,2.2,0,3.2l34.7,58.4
				c0.6,1,1.6,1.6,2.8,1.6c1.1,0,2.2-0.6,2.8-1.6L14.4-2.9c0.6-1,0.6-2.2,0-3.2C13.9-7.1,12.8-7.7,11.6-7.7z"/>
			<path d="M-50-2.8H6.8L-21,45.9L-50-2.8z M12.4-8.4h-68c-1.2,0-2.2,0.6-2.8,1.6c-0.6,1-0.6,2.2,0,3.2l34.7,58.4
				c0.6,1,1.6,1.6,2.8,1.6c1.1,0,2.2-0.6,2.8-1.6L15.1-3.6c0.6-1,0.6-2.2,0-3.2C14.6-7.8,13.5-8.4,12.4-8.4z"/>
			<path d="M-49.3-3.5H7.5l-27.8,48.8L-49.3-3.5z M13.1-9.1h-68c-1.2,0-2.2,0.6-2.8,1.6c-0.6,1-0.6,2.2,0,3.2L-23,54.1
				c0.6,1,1.6,1.6,2.8,1.6c1.1,0,2.2-0.6,2.8-1.6L15.8-4.3c0.6-1,0.6-2.2,0-3.2C15.3-8.5,14.2-9.1,13.1-9.1z"/>
			<path d="M-48.6-4.2H8.2l-27.8,48.8L-48.6-4.2z M13.8-9.8h-68c-1.2,0-2.2,0.6-2.8,1.6c-0.6,1-0.6,2.2,0,3.2l34.7,58.4
				c0.6,1,1.6,1.6,2.8,1.6c1.1,0,2.2-0.6,2.8-1.6L16.6-5c0.6-1,0.6-2.2,0-3.2C16-9.2,14.9-9.8,13.8-9.8z"/>
			<path d="M-47.9-4.9H8.9l-27.8,48.8L-47.9-4.9z M14.5-10.5h-68c-1.2,0-2.2,0.6-2.8,1.6c-0.6,1-0.6,2.2,0,3.2l34.7,58.4
				c0.6,1,1.6,1.6,2.8,1.6c1.1,0,2.2-0.6,2.8-1.6L17.3-5.7c0.6-1,0.6-2.2,0-3.2C16.7-9.9,15.6-10.5,14.5-10.5z"/>
			<path d="M-47.2-5.6H9.6l-27.8,48.8L-47.2-5.6z M15.2-11.2h-68c-1.2,0-2.2,0.6-2.8,1.6c-0.6,1-0.6,2.2,0,3.2L-20.9,52
				c0.6,1,1.6,1.6,2.8,1.6c1.1,0,2.2-0.6,2.8-1.6L18-6.4c0.6-1,0.6-2.2,0-3.2C17.4-10.6,16.3-11.2,15.2-11.2z"/>
			<path d="M-46.5-6.4h56.8l-27.8,48.8L-46.5-6.4z M15.9-11.9h-68c-1.2,0-2.2,0.6-2.8,1.6c-0.6,1-0.6,2.2,0,3.2l34.7,58.4
				c0.6,1,1.6,1.6,2.8,1.6c1.1,0,2.2-0.6,2.8-1.6L18.7-7.1c0.6-1,0.6-2.2,0-3.2C18.1-11.3,17-11.9,15.9-11.9z"/>
			<path d="M-45.8-7.1H11l-27.8,48.8L-45.8-7.1z M16.6-12.6h-68c-1.2,0-2.2,0.6-2.8,1.6c-0.6,1-0.6,2.2,0,3.2l34.7,58.4
				c0.6,1,1.6,1.6,2.8,1.6c1.1,0,2.2-0.6,2.8-1.6L19.4-7.8c0.6-1,0.6-2.2,0-3.2C18.8-12,17.7-12.6,16.6-12.6z"/>
			<path d="M-45.1-7.8h56.8L-16.1,41L-45.1-7.8z M17.3-13.3h-68c-1.2,0-2.2,0.6-2.8,1.6c-0.6,1-0.6,2.2,0,3.2l34.7,58.4
				c0.6,1,1.6,1.6,2.8,1.6c1.1,0,2.2-0.6,2.8-1.6L20.1-8.5c0.6-1,0.6-2.2,0-3.2C19.5-12.7,18.4-13.3,17.3-13.3z"/>
			<path d="M-44.4-8.5h56.8l-27.8,48.8L-44.4-8.5z M18-14h-68c-1.2,0-2.2,0.6-2.8,1.6c-0.6,1-0.6,2.2,0,3.2l34.7,58.4
				c0.6,1,1.6,1.6,2.8,1.6c1.1,0,2.2-0.6,2.8-1.6L20.8-9.2c0.6-1,0.6-2.2,0-3.2C20.2-13.4,19.1-14,18-14z"/>
			<path d="M-43.7-9.2h56.8l-27.8,48.8L-43.7-9.2z M18.7-14.7h-68c-1.2,0-2.2,0.6-2.8,1.6c-0.6,1-0.6,2.2,0,3.2l34.7,58.4
				c0.6,1,1.6,1.6,2.8,1.6c1.1,0,2.2-0.6,2.8-1.6L21.5-9.9c0.6-1,0.6-2.2,0-3.2C20.9-14.1,19.8-14.7,18.7-14.7z"/>
			<path d="M-43-9.9h56.8l-27.8,48.8L-43-9.9z M19.4-15.4h-68c-1.2,0-2.2,0.6-2.8,1.6c-0.6,1-0.6,2.2,0,3.2l34.7,58.4
				c0.6,1,1.6,1.6,2.8,1.6c1.1,0,2.2-0.6,2.8-1.6l33.3-58.4c0.6-1,0.6-2.2,0-3.2C21.6-14.8,20.5-15.4,19.4-15.4z"/>
			<path d="M-42.3-10.6h56.8l-27.8,48.8L-42.3-10.6z M20.1-16.1h-68c-1.2,0-2.2,0.6-2.8,1.6c-0.6,1-0.6,2.2,0,3.2l34.7,58.4
				c0.6,1,1.6,1.6,2.8,1.6c1.1,0,2.2-0.6,2.8-1.6l33.3-58.4c0.6-1,0.6-2.2,0-3.2C22.3-15.5,21.2-16.1,20.1-16.1z"/>
			<path d="M-41.5-11.3h56.8l-27.8,48.8L-41.5-11.3z M20.8-16.8h-68c-1.2,0-2.2,0.6-2.8,1.6c-0.6,1-0.6,2.2,0,3.2l34.7,58.4
				c0.6,1,1.6,1.6,2.8,1.6c1.1,0,2.2-0.6,2.8-1.6l33.3-58.4c0.6-1,0.6-2.2,0-3.2C23-16.2,21.9-16.8,20.8-16.8z"/>
			<path d="M-40.8-12H16l-27.8,48.8L-40.8-12z M21.5-17.6h-68c-1.2,0-2.2,0.6-2.8,1.6c-0.6,1-0.6,2.2,0,3.2l34.7,58.4
				c0.6,1,1.6,1.6,2.8,1.6c1.1,0,2.2-0.6,2.8-1.6l33.3-58.4c0.6-1,0.6-2.2,0-3.2C23.7-16.9,22.7-17.6,21.5-17.6z"/>
			<path d="M-40.1-12.7h56.8l-27.8,48.8L-40.1-12.7z M22.2-18.3h-68c-1.2,0-2.2,0.6-2.8,1.6c-0.6,1-0.6,2.2,0,3.2l34.7,58.4
				c0.6,1,1.6,1.6,2.8,1.6c1.1,0,2.2-0.6,2.8-1.6L25-13.5c0.6-1,0.6-2.2,0-3.2C24.4-17.7,23.4-18.3,22.2-18.3z"/>
			<path d="M-39.4-13.4h56.8l-27.8,48.8L-39.4-13.4z M22.9-19h-68c-1.2,0-2.2,0.6-2.8,1.6c-0.6,1-0.6,2.2,0,3.2l34.7,58.4
				c0.6,1,1.6,1.6,2.8,1.6c1.1,0,2.2-0.6,2.8-1.6l33.3-58.4c0.6-1,0.6-2.2,0-3.2C25.1-18.4,24.1-19,22.9-19z"/>
			<path d="M-38.7-14.1h56.8L-9.7,34.7L-38.7-14.1z M23.6-19.7h-68c-1.2,0-2.2,0.6-2.8,1.6c-0.6,1-0.6,2.2,0,3.2l34.7,58.4
				c0.6,1,1.6,1.6,2.8,1.6c1.1,0,2.2-0.6,2.8-1.6l33.3-58.4c0.6-1,0.6-2.2,0-3.2C25.8-19.1,24.8-19.7,23.6-19.7z"/>
			<path d="M-38-14.8h56.8L-9,33.9L-38-14.8z M24.3-20.4h-68c-1.2,0-2.2,0.6-2.8,1.6c-0.6,1-0.6,2.2,0,3.2l34.7,58.4
				c0.6,1,1.6,1.6,2.8,1.6c1.1,0,2.2-0.6,2.8-1.6l33.3-58.4c0.6-1,0.6-2.2,0-3.2C26.5-19.8,25.5-20.4,24.3-20.4z"/>
			<path d="M-37.3-15.5h56.8L-8.3,33.2L-37.3-15.5z M25-21.1h-68c-1.2,0-2.2,0.6-2.8,1.6c-0.6,1-0.6,2.2,0,3.2L-11,42.1
				c0.6,1,1.6,1.6,2.8,1.6c1.1,0,2.2-0.6,2.8-1.6l33.3-58.4c0.6-1,0.6-2.2,0-3.2C27.2-20.5,26.2-21.1,25-21.1z"/>
			<path d="M-36.6-16.2h56.8L-7.6,32.5L-36.6-16.2z M25.7-21.8h-68c-1.2,0-2.2,0.6-2.8,1.6c-0.6,1-0.6,2.2,0,3.2l34.7,58.4
				c0.6,1,1.6,1.6,2.8,1.6c1.1,0,2.2-0.6,2.8-1.6L28.5-17c0.6-1,0.6-2.2,0-3.2C27.9-21.2,26.9-21.8,25.7-21.8z"/>
			<path d="M-35.9-16.9h56.8L-6.9,31.8L-35.9-16.9z M26.4-22.5h-68c-1.2,0-2.2,0.6-2.8,1.6c-0.6,1-0.6,2.2,0,3.2l34.7,58.4
				c0.6,1,1.6,1.6,2.8,1.6c1.1,0,2.2-0.6,2.8-1.6l33.3-58.4c0.6-1,0.6-2.2,0-3.2C28.6-21.9,27.6-22.5,26.4-22.5z"/>
			<path d="M-35.2-17.6h56.8L-6.2,31.1L-35.2-17.6z M27.1-23.2h-68c-1.2,0-2.2,0.6-2.8,1.6c-0.6,1-0.6,2.2,0,3.2L-8.9,40
				c0.6,1,1.6,1.6,2.8,1.6c1.1,0,2.2-0.6,2.8-1.6l33.3-58.4c0.6-1,0.6-2.2,0-3.2C29.3-22.6,28.3-23.2,27.1-23.2z"/>
			<path d="M-34.5-18.3h56.8L-5.5,30.4L-34.5-18.3z M27.8-23.9h-68c-1.2,0-2.2,0.6-2.8,1.6c-0.6,1-0.6,2.2,0,3.2l34.7,58.4
				c0.6,1,1.6,1.6,2.8,1.6c1.1,0,2.2-0.6,2.8-1.6l33.3-58.4c0.6-1,0.6-2.2,0-3.2C30-23.3,29-23.9,27.8-23.9z"/>
			<path d="M-33.8-19H23L-4.8,29.7L-33.8-19z M28.5-24.6h-68c-1.2,0-2.2,0.6-2.8,1.6c-0.6,1-0.6,2.2,0,3.2l34.7,58.4
				c0.6,1,1.6,1.6,2.8,1.6c1.1,0,2.2-0.6,2.8-1.6l33.3-58.4c0.6-1,0.6-2.2,0-3.2C30.8-24,29.7-24.6,28.5-24.6z"/>
			<path d="M-33.1-19.7h56.8L-4.1,29L-33.1-19.7z M29.3-25.3h-68c-1.2,0-2.2,0.6-2.8,1.6c-0.6,1-0.6,2.2,0,3.2l34.7,58.4
				c0.6,1,1.6,1.6,2.8,1.6c1.1,0,2.2-0.6,2.8-1.6L32-20.5c0.6-1,0.6-2.2,0-3.2C31.5-24.7,30.4-25.3,29.3-25.3z"/>
			<path d="M-32.4-20.4h56.8L-3.4,28.3L-32.4-20.4z M30-26h-68c-1.2,0-2.2,0.6-2.8,1.6c-0.6,1-0.6,2.2,0,3.2l34.7,58.4
				c0.6,1,1.6,1.6,2.8,1.6c1.1,0,2.2-0.6,2.8-1.6l33.3-58.4c0.6-1,0.6-2.2,0-3.2C32.2-25.4,31.1-26,30-26z"/>
			<path d="M-31.7-21.1h56.8L-2.7,27.6L-31.7-21.1z M30.7-26.7h-68c-1.2,0-2.2,0.6-2.8,1.6c-0.6,1-0.6,2.2,0,3.2l34.7,58.4
				c0.6,1,1.6,1.6,2.8,1.6c1.1,0,2.2-0.6,2.8-1.6l33.3-58.4c0.6-1,0.6-2.2,0-3.2C32.9-26.1,31.8-26.7,30.7-26.7z"/>
			<path d="M-31-21.8h56.8L-2,26.9L-31-21.8z M31.4-27.4h-68c-1.2,0-2.2,0.6-2.8,1.6c-0.6,1-0.6,2.2,0,3.2l34.7,58.4
				c0.6,1,1.6,1.6,2.8,1.6c1.1,0,2.2-0.6,2.8-1.6l33.3-58.4c0.6-1,0.6-2.2,0-3.2C33.6-26.8,32.5-27.4,31.4-27.4z"/>
			<path d="M-30.3-22.6h56.8L-1.3,26.2L-30.3-22.6z M32.1-28.1h-68c-1.2,0-2.2,0.6-2.8,1.6c-0.6,1-0.6,2.2,0,3.2L-4,35.1
				c0.6,1,1.6,1.6,2.8,1.6C0,36.6,1,36,1.6,35l33.3-58.4c0.6-1,0.6-2.2,0-3.2C34.3-27.5,33.2-28.1,32.1-28.1z"/>
			<path d="M-29.6-23.3h56.8L-0.6,25.5L-29.6-23.3z M32.8-28.8h-68c-1.2,0-2.2,0.6-2.8,1.6c-0.6,1-0.6,2.2,0,3.2l34.7,58.4
				c0.6,1,1.6,1.6,2.8,1.6c1.1,0,2.2-0.6,2.8-1.6L35.6-24c0.6-1,0.6-2.2,0-3.2C35-28.2,33.9-28.8,32.8-28.8z"/>
			<path d="M-28.9-24h56.8L0.1,24.8L-28.9-24z M33.5-29.5h-68c-1.2,0-2.2,0.6-2.8,1.6c-0.6,1-0.6,2.2,0,3.2l34.7,58.4
				c0.6,1,1.6,1.6,2.8,1.6c1.1,0,2.2-0.6,2.8-1.6l33.3-58.4c0.6-1,0.6-2.2,0-3.2C35.7-28.9,34.6-29.5,33.5-29.5z"/>
			<path d="M-28.2-24.7h56.8L0.8,24.1L-28.2-24.7z M34.2-30.2h-68c-1.2,0-2.2,0.6-2.8,1.6c-0.6,1-0.6,2.2,0,3.2L-1.9,33
				c0.6,1,1.6,1.6,2.8,1.6c1.1,0,2.2-0.6,2.8-1.6L37-25.4c0.6-1,0.6-2.2,0-3.2C36.4-29.6,35.3-30.2,34.2-30.2z"/>
			<path d="M-27.5-25.4h56.8L1.5,23.4L-27.5-25.4z M34.9-30.9h-68c-1.2,0-2.2,0.6-2.8,1.6c-0.6,1-0.6,2.2,0,3.2l34.7,58.4
				c0.6,1,1.6,1.6,2.8,1.6c1.1,0,2.2-0.6,2.8-1.6l33.3-58.4c0.6-1,0.6-2.2,0-3.2C37.1-30.3,36-30.9,34.9-30.9z"/>
			<path d="M-26.8-26.1h56.8L2.3,22.7L-26.8-26.1z M35.6-31.6h-68c-1.2,0-2.2,0.6-2.8,1.6c-0.6,1-0.6,2.2,0,3.2l34.7,58.4
				c0.6,1,1.6,1.6,2.8,1.6c1.1,0,2.2-0.6,2.8-1.6l33.3-58.4c0.6-1,0.6-2.2,0-3.2C37.8-31,36.7-31.6,35.6-31.6z"/>
			<path d="M-26.1-26.8h56.8L3,22L-26.1-26.8z M36.3-32.3h-68c-1.2,0-2.2,0.6-2.8,1.6c-0.6,1-0.6,2.2,0,3.2L0.3,30.9
				c0.6,1,1.6,1.6,2.8,1.6c1.1,0,2.2-0.6,2.8-1.6l33.3-58.4c0.6-1,0.6-2.2,0-3.2C38.5-31.7,37.4-32.3,36.3-32.3z"/>
			<path d="M-25.3-27.5h56.8L3.7,21.3L-25.3-27.5z M37-33h-68c-1.2,0-2.2,0.6-2.8,1.6c-0.6,1-0.6,2.2,0,3.2L1,30.2
				c0.6,1,1.6,1.6,2.8,1.6c1.1,0,2.2-0.6,2.8-1.6l33.3-58.4c0.6-1,0.6-2.2,0-3.2C39.2-32.4,38.1-33,37-33z"/>
			<path d="M-24.6-28.2h56.8L4.4,20.6L-24.6-28.2z M37.7-33.7h-68c-1.2,0-2.2,0.6-2.8,1.6c-0.6,1-0.6,2.2,0,3.2L1.7,29.5
				c0.6,1,1.6,1.6,2.8,1.6c1.1,0,2.2-0.6,2.8-1.6L40.5-29c0.6-1,0.6-2.2,0-3.2C39.9-33.1,38.8-33.7,37.7-33.7z"/>
			<path d="M-23.9-28.9h56.8L5.1,19.9L-23.9-28.9z M38.4-34.5h-68c-1.2,0-2.2,0.6-2.8,1.6c-0.6,1-0.6,2.2,0,3.2L2.4,28.8
				c0.6,1,1.6,1.6,2.8,1.6c1.1,0,2.2-0.6,2.8-1.6l33.3-58.4c0.6-1,0.6-2.2,0-3.2C40.6-33.9,39.6-34.5,38.4-34.5z"/>
			<path d="M-23.2-29.6h56.8L5.8,19.2L-23.2-29.6z M39.1-35.2h-68c-1.2,0-2.2,0.6-2.8,1.6c-0.6,1-0.6,2.2,0,3.2L3.1,28
				c0.6,1,1.6,1.6,2.8,1.6C7,29.6,8.1,29,8.6,28l33.3-58.4c0.6-1,0.6-2.2,0-3.2C41.3-34.6,40.3-35.2,39.1-35.2z"/>
			<path d="M-22.5-30.3h56.8L6.5,18.5L-22.5-30.3z M39.8-35.9h-68c-1.2,0-2.2,0.6-2.8,1.6c-0.6,1-0.6,2.2,0,3.2L3.8,27.3
				c0.6,1,1.6,1.6,2.8,1.6c1.1,0,2.2-0.6,2.8-1.6l33.3-58.4c0.6-1,0.6-2.2,0-3.2C42-35.3,41-35.9,39.8-35.9z"/>
			<path d="M-21.8-31H35L7.2,17.8L-21.8-31z M40.5-36.6h-68c-1.2,0-2.2,0.6-2.8,1.6c-0.6,1-0.6,2.2,0,3.2L4.5,26.6
				c0.6,1,1.6,1.6,2.8,1.6c1.1,0,2.2-0.6,2.8-1.6l33.3-58.4c0.6-1,0.6-2.2,0-3.2C42.7-36,41.7-36.6,40.5-36.6z"/>
			<path d="M-21.1-31.7h56.8L7.9,17L-21.1-31.7z M41.2-37.3h-68c-1.2,0-2.2,0.6-2.8,1.6c-0.6,1-0.6,2.2,0,3.2L5.2,25.9
				c0.6,1,1.6,1.6,2.8,1.6c1.1,0,2.2-0.6,2.8-1.6L44-32.5c0.6-1,0.6-2.2,0-3.2C43.4-36.7,42.4-37.3,41.2-37.3z"/>
			<path d="M-20.4-32.4h56.8L8.6,16.3L-20.4-32.4z M41.9-38h-68c-1.2,0-2.2,0.6-2.8,1.6c-0.6,1-0.6,2.2,0,3.2L5.9,25.2
				c0.6,1,1.6,1.6,2.8,1.6c1.1,0,2.2-0.6,2.8-1.6l33.3-58.4c0.6-1,0.6-2.2,0-3.2C44.1-37.4,43.1-38,41.9-38z"/>
			<path d="M-19.7-33.1h56.8L9.3,15.6L-19.7-33.1z M42.6-38.7h-68c-1.2,0-2.2,0.6-2.8,1.6c-0.6,1-0.6,2.2,0,3.2L6.6,24.5
				c0.6,1,1.6,1.6,2.8,1.6c1.1,0,2.2-0.6,2.8-1.6l33.3-58.4c0.6-1,0.6-2.2,0-3.2C44.8-38.1,43.8-38.7,42.6-38.7z"/>
			<path d="M-19-33.8h56.8L10,14.9L-19-33.8z M43.3-39.4h-68c-1.2,0-2.2,0.6-2.8,1.6c-0.6,1-0.6,2.2,0,3.2L7.3,23.8
				c0.6,1,1.6,1.6,2.8,1.6c1.1,0,2.2-0.6,2.8-1.6l33.3-58.4c0.6-1,0.6-2.2,0-3.2C45.5-38.8,44.5-39.4,43.3-39.4z"/>
			<path d="M-18.3-34.5h56.8L10.7,14.2L-18.3-34.5z M44-40.1h-68c-1.2,0-2.2,0.6-2.8,1.6c-0.6,1-0.6,2.2,0,3.2L8,23.1
				c0.6,1,1.6,1.6,2.8,1.6c1.1,0,2.2-0.6,2.8-1.6l33.3-58.4c0.6-1,0.6-2.2,0-3.2C46.2-39.5,45.2-40.1,44-40.1z"/>
			<path d="M-17.6-35.2h56.8L11.4,13.5L-17.6-35.2z M44.7-40.8h-68c-1.2,0-2.2,0.6-2.8,1.6c-0.6,1-0.6,2.2,0,3.2L8.7,22.4
				c0.6,1,1.6,1.6,2.8,1.6c1.1,0,2.2-0.6,2.8-1.6L47.5-36c0.6-1,0.6-2.2,0-3.2C47-40.2,45.9-40.8,44.7-40.8z"/>
			<path d="M-16.9-35.9h56.8L12.1,12.8L-16.9-35.9z M45.5-41.5h-68c-1.2,0-2.2,0.6-2.8,1.6c-0.6,1-0.6,2.2,0,3.2L9.4,21.7
				c0.6,1,1.6,1.6,2.8,1.6c1.1,0,2.2-0.6,2.8-1.6l33.3-58.4c0.6-1,0.6-2.2,0-3.2C47.7-40.9,46.6-41.5,45.5-41.5z"/>
			<path d="M-16.2-36.6h56.8L12.8,12.1L-16.2-36.6z M46.2-42.2h-68c-1.2,0-2.2,0.6-2.8,1.6c-0.6,1-0.6,2.2,0,3.2L10.1,21
				c0.6,1,1.6,1.6,2.8,1.6c1.1,0,2.2-0.6,2.8-1.6l33.3-58.4c0.6-1,0.6-2.2,0-3.2C48.4-41.6,47.3-42.2,46.2-42.2z"/>
			<path d="M-15.5-37.3h56.8L13.5,11.4L-15.5-37.3z M46.9-42.9h-68c-1.2,0-2.2,0.6-2.8,1.6c-0.6,1-0.6,2.2,0,3.2l34.7,58.4
				c0.6,1,1.6,1.6,2.8,1.6c1.1,0,2.2-0.6,2.8-1.6l33.3-58.4c0.6-1,0.6-2.2,0-3.2C49.1-42.3,48-42.9,46.9-42.9z"/>
			<path d="M-14.8-38H42L14.2,10.7L-14.8-38z M47.6-43.6h-68c-1.2,0-2.2,0.6-2.8,1.6c-0.6,1-0.6,2.2,0,3.2l34.7,58.4
				c0.6,1,1.6,1.6,2.8,1.6c1.1,0,2.2-0.6,2.8-1.6l33.3-58.4c0.6-1,0.6-2.2,0-3.2C49.8-43,48.7-43.6,47.6-43.6z"/>
			<path d="M-14.1-38.7h56.8L14.9,10L-14.1-38.7z M48.3-44.3h-68c-1.2,0-2.2,0.6-2.8,1.6c-0.6,1-0.6,2.2,0,3.2l34.7,58.4
				c0.6,1,1.6,1.6,2.8,1.6c1.1,0,2.2-0.6,2.8-1.6l33.3-58.4c0.6-1,0.6-2.2,0-3.2C50.5-43.7,49.4-44.3,48.3-44.3z"/>
			<path d="M-13.4-39.5h56.8L15.6,9.3L-13.4-39.5z M49-45h-68c-1.2,0-2.2,0.6-2.8,1.6c-0.6,1-0.6,2.2,0,3.2l34.7,58.4
				c0.6,1,1.6,1.6,2.8,1.6c1.1,0,2.2-0.6,2.8-1.6l33.3-58.4c0.6-1,0.6-2.2,0-3.2C51.2-44.4,50.1-45,49-45z"/>
			<path d="M-12.7-40.2h56.8L16.3,8.6L-12.7-40.2z M49.7-45.7h-68c-1.2,0-2.2,0.6-2.8,1.6c-0.6,1-0.6,2.2,0,3.2l34.7,58.4
				c0.6,1,1.6,1.6,2.8,1.6c1.1,0,2.2-0.6,2.8-1.6l33.3-58.4c0.6-1,0.6-2.2,0-3.2C51.9-45.1,50.8-45.7,49.7-45.7z"/>
			<path d="M-12-40.9h56.8L17,7.9L-12-40.9z M50.4-46.4h-68c-1.2,0-2.2,0.6-2.8,1.6c-0.6,1-0.6,2.2,0,3.2l34.7,58.4
				c0.6,1,1.6,1.6,2.8,1.6c1.1,0,2.2-0.6,2.8-1.6l33.3-58.4c0.6-1,0.6-2.2,0-3.2C52.6-45.8,51.5-46.4,50.4-46.4z"/>
			<path d="M-11.3-41.6h56.8L17.7,7.2L-11.3-41.6z M51.1-47.1h-68c-1.2,0-2.2,0.6-2.8,1.6c-0.6,1-0.6,2.2,0,3.2L15,16.1
				c0.6,1,1.6,1.6,2.8,1.6c1.1,0,2.2-0.6,2.8-1.6l33.3-58.4c0.6-1,0.6-2.2,0-3.2C53.3-46.5,52.2-47.1,51.1-47.1z"/>
			<path d="M-10.6-42.3h56.8L18.5,6.5L-10.6-42.3z M51.8-47.8h-68c-1.2,0-2.2,0.6-2.8,1.6c-0.6,1-0.6,2.2,0,3.2l34.7,58.4
				c0.6,1,1.6,1.6,2.8,1.6c1.1,0,2.2-0.6,2.8-1.6L54.6-43c0.6-1,0.6-2.2,0-3.2C54-47.2,52.9-47.8,51.8-47.8z"/>
			<path d="M-9.9-43H47L19.2,5.8L-9.9-43z M52.5-48.5h-68c-1.2,0-2.2,0.6-2.8,1.6c-0.6,1-0.6,2.2,0,3.2l34.7,58.4
				c0.6,1,1.6,1.6,2.8,1.6c1.1,0,2.2-0.6,2.8-1.6l33.3-58.4c0.6-1,0.6-2.2,0-3.2C54.7-47.9,53.6-48.5,52.5-48.5z"/>
			<path d="M-9.2-43.7h56.8L19.9,5.1L-9.2-43.7z M53.2-49.2h-68c-1.2,0-2.2,0.6-2.8,1.6c-0.6,1-0.6,2.2,0,3.2L17.2,14
				c0.6,1,1.6,1.6,2.8,1.6c1.1,0,2.2-0.6,2.8-1.6L56-44.4c0.6-1,0.6-2.2,0-3.2C55.4-48.6,54.3-49.2,53.2-49.2z"/>
			<path d="M-8.4-44.4h56.8L20.6,4.4L-8.4-44.4z M53.9-49.9h-68c-1.2,0-2.2,0.6-2.8,1.6c-0.6,1-0.6,2.2,0,3.2l34.7,58.4
				c0.6,1,1.6,1.6,2.8,1.6c1.1,0,2.2-0.6,2.8-1.6l33.3-58.4c0.6-1,0.6-2.2,0-3.2C56.1-49.3,55-49.9,53.9-49.9z"/>
			<path d="M-7.7-45.1h56.8L21.3,3.7L-7.7-45.1z M54.6-50.7h-68c-1.2,0-2.2,0.6-2.8,1.6c-0.6,1-0.6,2.2,0,3.2l34.7,58.4
				c0.6,1,1.6,1.6,2.8,1.6c1.1,0,2.2-0.6,2.8-1.6l33.3-58.4c0.6-1,0.6-2.2,0-3.2C56.8-50,55.8-50.7,54.6-50.7z"/>
			<path d="M-7-45.8h56.8L22,3L-7-45.8z M55.3-51.4h-68c-1.2,0-2.2,0.6-2.8,1.6c-0.6,1-0.6,2.2,0,3.2l34.7,58.4
				c0.6,1,1.6,1.6,2.8,1.6c1.1,0,2.2-0.6,2.8-1.6l33.3-58.4c0.6-1,0.6-2.2,0-3.2C57.5-50.8,56.5-51.4,55.3-51.4z"/>
			<path d="M-6.3-46.5h56.8L22.7,2.3L-6.3-46.5z M56-52.1h-68c-1.2,0-2.2,0.6-2.8,1.6c-0.6,1-0.6,2.2,0,3.2L20,11.1
				c0.6,1,1.6,1.6,2.8,1.6c1.1,0,2.2-0.6,2.8-1.6l33.3-58.4c0.6-1,0.6-2.2,0-3.2C58.2-51.5,57.2-52.1,56-52.1z"/>
			<path d="M-5.6-47.2h56.8L23.4,1.6L-5.6-47.2z M56.7-52.8h-68c-1.2,0-2.2,0.6-2.8,1.6c-0.6,1-0.6,2.2,0,3.2l34.7,58.4
				c0.6,1,1.6,1.6,2.8,1.6c1.1,0,2.2-0.6,2.8-1.6L59.5-48c0.6-1,0.6-2.2,0-3.2C58.9-52.2,57.9-52.8,56.7-52.8z"/>
			<path d="M-4.9-47.9h56.8L24.1,0.9L-4.9-47.9z M57.4-53.5h-68c-1.2,0-2.2,0.6-2.8,1.6c-0.6,1-0.6,2.2,0,3.2L21.4,9.7
				c0.6,1,1.6,1.6,2.8,1.6c1.1,0,2.2-0.6,2.8-1.6l33.3-58.4c0.6-1,0.6-2.2,0-3.2C59.6-52.9,58.6-53.5,57.4-53.5z"/>
			<path d="M-4.2-48.6h56.8L24.8,0.1L-4.2-48.6z M58.1-54.2h-68c-1.2,0-2.2,0.6-2.8,1.6c-0.6,1-0.6,2.2,0,3.2L22.1,9
				c0.6,1,1.6,1.6,2.8,1.6c1.1,0,2.2-0.6,2.8-1.6l33.3-58.4c0.6-1,0.6-2.2,0-3.2C60.3-53.6,59.3-54.2,58.1-54.2z"/>
			<path d="M-3.5-49.3h56.8L25.5-0.6L-3.5-49.3z M58.8-54.9h-68c-1.2,0-2.2,0.6-2.8,1.6c-0.6,1-0.6,2.2,0,3.2L22.8,8.3
				c0.6,1,1.6,1.6,2.8,1.6c1.1,0,2.2-0.6,2.8-1.6l33.3-58.4c0.6-1,0.6-2.2,0-3.2C61-54.3,60-54.9,58.8-54.9z"/>
			<path d="M-2.8-50H54L26.2-1.3L-2.8-50z M59.5-55.6h-68c-1.2,0-2.2,0.6-2.8,1.6c-0.6,1-0.6,2.2,0,3.2L23.5,7.6
				c0.6,1,1.6,1.6,2.8,1.6c1.1,0,2.2-0.6,2.8-1.6l33.3-58.4c0.6-1,0.6-2.2,0-3.2C61.7-55,60.7-55.6,59.5-55.6z"/>
			<path d="M-2.1-50.7h56.8L26.9-2L-2.1-50.7z M60.2-56.3h-68c-1.2,0-2.2,0.6-2.8,1.6c-0.6,1-0.6,2.2,0,3.2L24.2,6.9
				c0.6,1,1.6,1.6,2.8,1.6c1.1,0,2.2-0.6,2.8-1.6L63-51.5c0.6-1,0.6-2.2,0-3.2C62.4-55.7,61.4-56.3,60.2-56.3z"/>
			<path d="M-1.4-51.4h56.8L27.6-2.7L-1.4-51.4z M60.9-57h-68c-1.2,0-2.2,0.6-2.8,1.6c-0.6,1-0.6,2.2,0,3.2L24.9,6.2
				c0.6,1,1.6,1.6,2.8,1.6c1.1,0,2.2-0.6,2.8-1.6l33.3-58.4c0.6-1,0.6-2.2,0-3.2C63.1-56.4,62.1-57,60.9-57z"/>
			<path d="M-0.7-52.1h56.8L28.3-3.4L-0.7-52.1z M61.6-57.7h-68c-1.2,0-2.2,0.6-2.8,1.6c-0.6,1-0.6,2.2,0,3.2L25.6,5.5
				c0.6,1,1.6,1.6,2.8,1.6c1.1,0,2.2-0.6,2.8-1.6l33.3-58.4c0.6-1,0.6-2.2,0-3.2C63.9-57.1,62.8-57.7,61.6-57.7z"/>
			<path d="M0-52.8h56.8L29-4.1L0-52.8z M62.4-58.4h-68c-1.2,0-2.2,0.6-2.8,1.6c-0.6,1-0.6,2.2,0,3.2L26.3,4.8
				c0.6,1,1.6,1.6,2.8,1.6c1.1,0,2.2-0.6,2.8-1.6l33.3-58.4c0.6-1,0.6-2.2,0-3.2C64.6-57.8,63.5-58.4,62.4-58.4z"/>
			<path d="M0.7-53.5h56.8L29.7-4.8L0.7-53.5z M63.1-59.1h-68c-1.2,0-2.2,0.6-2.8,1.6c-0.6,1-0.6,2.2,0,3.2L27,4.1
				c0.6,1,1.6,1.6,2.8,1.6C31,5.7,32,5,32.6,4l33.3-58.4c0.6-1,0.6-2.2,0-3.2C65.3-58.5,64.2-59.1,63.1-59.1z"/>
			<path d="M1.4-54.2h56.8L30.4-5.5L1.4-54.2z M63.8-59.8h-68c-1.2,0-2.2,0.6-2.8,1.6c-0.6,1-0.6,2.2,0,3.2L27.7,3.4
				c0.6,1,1.6,1.6,2.8,1.6c1.1,0,2.2-0.6,2.8-1.6L66.6-55c0.6-1,0.6-2.2,0-3.2C66-59.2,64.9-59.8,63.8-59.8z"/>
			<path d="M2.1-54.9h56.8L31.1-6.2L2.1-54.9z M64.5-60.5h-68c-1.2,0-2.2,0.6-2.8,1.6c-0.6,1-0.6,2.2,0,3.2L28.4,2.7
				c0.6,1,1.6,1.6,2.8,1.6c1.1,0,2.2-0.6,2.8-1.6l33.3-58.4c0.6-1,0.6-2.2,0-3.2C66.7-59.9,65.6-60.5,64.5-60.5z"/>
			<path d="M2.8-55.7h56.8L31.8-6.9L2.8-55.7z M65.2-61.2h-68c-1.2,0-2.2,0.6-2.8,1.6c-0.6,1-0.6,2.2,0,3.2L29.1,2
				c0.6,1,1.6,1.6,2.8,1.6c1.1,0,2.2-0.6,2.8-1.6L68-56.4c0.6-1,0.6-2.2,0-3.2C67.4-60.6,66.3-61.2,65.2-61.2z"/>
			<path d="M3.5-56.4h56.8L32.5-7.6L3.5-56.4z M65.9-61.9h-68c-1.2,0-2.2,0.6-2.8,1.6c-0.6,1-0.6,2.2,0,3.2L29.8,1.3
				c0.6,1,1.6,1.6,2.8,1.6c1.1,0,2.2-0.6,2.8-1.6l33.3-58.4c0.6-1,0.6-2.2,0-3.2C68.1-61.3,67-61.9,65.9-61.9z"/>
			<path d="M4.2-57.1H61L33.2-8.3L4.2-57.1z M66.6-62.6h-68c-1.2,0-2.2,0.6-2.8,1.6c-0.6,1-0.6,2.2,0,3.2L30.5,0.6
				c0.6,1,1.6,1.6,2.8,1.6c1.1,0,2.2-0.6,2.8-1.6l33.3-58.4c0.6-1,0.6-2.2,0-3.2C68.8-62,67.7-62.6,66.6-62.6z"/>
			<path d="M4.9-57.8h56.8L33.9-9L4.9-57.8z M67.3-63.3h-68c-1.2,0-2.2,0.6-2.8,1.6c-0.6,1-0.6,2.2,0,3.2L31.2-0.1
				c0.6,1,1.6,1.6,2.8,1.6c1.1,0,2.2-0.6,2.8-1.6l33.3-58.4c0.6-1,0.6-2.2,0-3.2C69.5-62.7,68.4-63.3,67.3-63.3z"/>
			<path d="M5.6-58.5h56.8L34.6-9.7L5.6-58.5z M68-64H0c-1.2,0-2.2,0.6-2.8,1.6c-0.6,1-0.6,2.2,0,3.2L31.9-0.8
				c0.6,1,1.6,1.6,2.8,1.6c1.1,0,2.2-0.6,2.8-1.6l33.3-58.4c0.6-1,0.6-2.2,0-3.2C70.2-63.4,69.1-64,68-64z"/>
			<path d="M6.3-59.2h56.8L35.4-10.4L6.3-59.2z M68.7-64.7h-68c-1.2,0-2.2,0.6-2.8,1.6c-0.6,1-0.6,2.2,0,3.2L32.6-1.5
				c0.6,1,1.6,1.6,2.8,1.6c1.1,0,2.2-0.6,2.8-1.6l33.3-58.4c0.6-1,0.6-2.2,0-3.2C70.9-64.1,69.8-64.7,68.7-64.7z"/>
			<path d="M7-59.9h56.8L36.1-11.1L7-59.9z M69.4-65.4h-68c-1.2,0-2.2,0.6-2.8,1.6c-0.6,1-0.6,2.2,0,3.2L33.4-2.2
				c0.6,1,1.6,1.6,2.8,1.6c1.1,0,2.2-0.6,2.8-1.6l33.3-58.4c0.6-1,0.6-2.2,0-3.2C71.6-64.8,70.5-65.4,69.4-65.4z"/>
			<path d="M7.8-60.6h56.8L36.8-11.8L7.8-60.6z M70.1-66.1h-68c-1.2,0-2.2,0.6-2.8,1.6c-0.6,1-0.6,2.2,0,3.2L34.1-2.9
				c0.6,1,1.6,1.6,2.8,1.6C38-1.4,39-2,39.6-3l33.3-58.4c0.6-1,0.6-2.2,0-3.2C72.3-65.5,71.2-66.1,70.1-66.1z"/>
			<path d="M8.5-61.3h56.8L37.5-12.5L8.5-61.3z M70.8-66.8h-68c-1.2,0-2.2,0.6-2.8,1.6c-0.6,1-0.6,2.2,0,3.2L34.8-3.6
				c0.6,1,1.6,1.6,2.8,1.6c1.1,0,2.2-0.6,2.8-1.6l33.3-58.4c0.6-1,0.6-2.2,0-3.2C73-66.2,71.9-66.8,70.8-66.8z"/>
			<path d="M9.2-62H66L38.2-13.2L9.2-62z M71.5-67.6h-68c-1.2,0-2.2,0.6-2.8,1.6c-0.6,1-0.6,2.2,0,3.2L35.5-4.3
				c0.6,1,1.6,1.6,2.8,1.6c1.1,0,2.2-0.6,2.8-1.6l33.3-58.4c0.6-1,0.6-2.2,0-3.2C73.7-67,72.7-67.6,71.5-67.6z"/>
			<path d="M9.9-62.7h56.8L38.9-13.9L9.9-62.7z M72.2-68.3h-68c-1.2,0-2.2,0.6-2.8,1.6c-0.6,1-0.6,2.2,0,3.2L36.2-5.1
				c0.6,1,1.6,1.6,2.8,1.6c1.1,0,2.2-0.6,2.8-1.6L75-63.5c0.6-1,0.6-2.2,0-3.2C74.4-67.7,73.4-68.3,72.2-68.3z"/>
			<path d="M10.6-63.4h56.8L39.6-14.6L10.6-63.4z M72.9-69h-68c-1.2,0-2.2,0.6-2.8,1.6c-0.6,1-0.6,2.2,0,3.2L36.9-5.8
				c0.6,1,1.6,1.6,2.8,1.6c1.1,0,2.2-0.6,2.8-1.6l33.3-58.4c0.6-1,0.6-2.2,0-3.2C75.1-68.4,74.1-69,72.9-69z"/>
			<path d="M11.3-64.1h56.8L40.3-15.3L11.3-64.1z M73.6-69.7h-68c-1.2,0-2.2,0.6-2.8,1.6c-0.6,1-0.6,2.2,0,3.2L37.6-6.5
				c0.6,1,1.6,1.6,2.8,1.6c1.1,0,2.2-0.6,2.8-1.6l33.3-58.4c0.6-1,0.6-2.2,0-3.2C75.8-69.1,74.8-69.7,73.6-69.7z"/>
			<path d="M12-64.8h56.8L41-16.1L12-64.8z M74.3-70.4h-68c-1.2,0-2.2,0.6-2.8,1.6c-0.6,1-0.6,2.2,0,3.2L38.3-7.2
				c0.6,1,1.6,1.6,2.8,1.6c1.1,0,2.2-0.6,2.8-1.6l33.3-58.4c0.6-1,0.6-2.2,0-3.2C76.5-69.8,75.5-70.4,74.3-70.4z"/>
			<path d="M12.7-65.5h56.8L41.7-16.8L12.7-65.5z M75-71.1H7c-1.2,0-2.2,0.6-2.8,1.6c-0.6,1-0.6,2.2,0,3.2L39-7.9
				c0.6,1,1.6,1.6,2.8,1.6c1.1,0,2.2-0.6,2.8-1.6l33.3-58.4c0.6-1,0.6-2.2,0-3.2C77.2-70.5,76.2-71.1,75-71.1z"/>
			<path d="M13.4-66.2h56.8L42.4-17.5L13.4-66.2z M75.7-71.8h-68c-1.2,0-2.2,0.6-2.8,1.6c-0.6,1-0.6,2.2,0,3.2L39.7-8.6
				c0.6,1,1.6,1.6,2.8,1.6c1.1,0,2.2-0.6,2.8-1.6L78.5-67c0.6-1,0.6-2.2,0-3.2C77.9-71.2,76.9-71.8,75.7-71.8z"/>
			<path d="M14.1-66.9h56.8L43.1-18.2L14.1-66.9z M76.4-72.5h-68c-1.2,0-2.2,0.6-2.8,1.6c-0.6,1-0.6,2.2,0,3.2L40.4-9.3
				c0.6,1,1.6,1.6,2.8,1.6c1.1,0,2.2-0.6,2.8-1.6l33.3-58.4c0.6-1,0.6-2.2,0-3.2C78.6-71.9,77.6-72.5,76.4-72.5z"/>
			<path d="M14.8-67.6h56.8L43.8-18.9L14.8-67.6z M77.1-73.2h-68c-1.2,0-2.2,0.6-2.8,1.6c-0.6,1-0.6,2.2,0,3.2L41.1-10
				c0.6,1,1.6,1.6,2.8,1.6c1.1,0,2.2-0.6,2.8-1.6l33.3-58.4c0.6-1,0.6-2.2,0-3.2C79.3-72.6,78.3-73.2,77.1-73.2z"/>
			<path d="M15.5-68.3h56.8L44.5-19.6L15.5-68.3z M77.8-73.9h-68c-1.2,0-2.2,0.6-2.8,1.6c-0.6,1-0.6,2.2,0,3.2l34.7,58.4
				c0.6,1,1.6,1.6,2.8,1.6c1.1,0,2.2-0.6,2.8-1.6l33.3-58.4c0.6-1,0.6-2.2,0-3.2C80-73.3,79-73.9,77.8-73.9z"/>
			<path d="M16.2-69H73L45.2-20.3L16.2-69z M78.5-74.6h-68c-1.2,0-2.2,0.6-2.8,1.6c-0.6,1-0.6,2.2,0,3.2l34.7,58.4
				c0.6,1,1.6,1.6,2.8,1.6c1.1,0,2.2-0.6,2.8-1.6l33.3-58.4c0.6-1,0.6-2.2,0-3.2C80.8-74,79.7-74.6,78.5-74.6z"/>
			<path d="M16.9-69.7h56.8L45.9-21L16.9-69.7z M79.3-75.3h-68c-1.2,0-2.2,0.6-2.8,1.6c-0.6,1-0.6,2.2,0,3.2l34.7,58.4
				c0.6,1,1.6,1.6,2.8,1.6c1.1,0,2.2-0.6,2.8-1.6L82-70.5c0.6-1,0.6-2.2,0-3.2C81.5-74.7,80.4-75.3,79.3-75.3z"/>
		</g>
	</g>
	<g>
		<polygon fill="#D45A3E" points="-34.3,66.3 -69,7.9 -1,7.9 		"/>
		<path fill="#FFFFFF" d="M-1,4.9h-68c-1.2,0-2.2,0.7-2.8,1.7c-0.6,1-0.6,2.3,0,3.3l34.7,58.4c0.6,1,1.6,1.6,2.8,1.6
			c1.1,0,2.2-0.6,2.8-1.6L1.8,9.8c0.6-1,0.6-2.3,0-3.2C1.2,5.5,0.1,4.9-1,4.9z M-63.4,8.9h56.8l-27.8,48.8L-63.4,8.9z"/>
	</g>
	<linearGradient id="SVGID_3_" gradientUnits="userSpaceOnUse" x1="-58.0745" y1="45.6305" x2="-57.9041" y2="45.4601">
		<stop  offset="0" style="stop-color:#000000"/>
		<stop  offset="1" style="stop-color:#000000;stop-opacity:0"/>
	</linearGradient>
	<path fill="url(#SVGID_3_)" d="M-57.9,45.5c0,0.1,0,0.1,0,0.2C-58,45.8-58.3,45.5-57.9,45.5z"/>
	<linearGradient id="SVGID_4_" gradientUnits="userSpaceOnUse" x1="-45.6547" y1="53.8643" x2="-45.5228" y2="53.7325">
		<stop  offset="0" style="stop-color:#000000"/>
		<stop  offset="1" style="stop-color:#000000;stop-opacity:0"/>
	</linearGradient>
	<path fill="url(#SVGID_4_)" d="M-45.4,53.8c-0.2,0-0.3,0-0.3,0C-45.6,53.8-45.5,53.8-45.4,53.8z"/>
	<linearGradient id="SVGID_5_" gradientUnits="userSpaceOnUse" x1="-43.9166" y1="53.2679" x2="-43.847" y2="53.1984">
		<stop  offset="0" style="stop-color:#000000"/>
		<stop  offset="1" style="stop-color:#000000;stop-opacity:0"/>
	</linearGradient>
	<path fill="url(#SVGID_5_)" d="M-43.9,53.2C-43.9,53.2-43.9,53.2-43.9,53.2C-43.9,53.3-43.9,53.2-43.9,53.2z"/>
	<linearGradient id="SVGID_6_" gradientUnits="userSpaceOnUse" x1="-42.1994" y1="29.2004" x2="8.1014" y2="-5.904">
		<stop  offset="0" style="stop-color:#000000"/>
		<stop  offset="1" style="stop-color:#000000;stop-opacity:0"/>
	</linearGradient>
	<path fill="url(#SVGID_6_)" d="M1.8,6.7C1.2,5.7,0.1,4.9-1,4.9h-42.3L-48,9.6c-0.2-0.3-0.6-0.4-1-0.3c-0.2,0-0.4,0.1-0.6,0.3
		l0.9,1.8l1.3,9.3l6.7,7.2L-23,39.8c0.1,0,0.1,0,0.2-0.1l7.2-4l6.3-6.2L1.8,10C2.3,9,2.3,7.7,1.8,6.7z"/>
	<path fill="#FCFCFC" d="M-57.9,45.5c-0.2,0.7-0.1,1.4,0.4,1.9c0.8,0.2,1.6-2.2,2.2-2.5c2.6-1.2,1.2-0.3,2.3,0.8
		c0.6,0.7,1.3,6.9,2.1,6.9c0.9,0,0.1-1.2,0.9-1.2c0.7,0,0.3,1.5,1.1,1.4c0.8-0.1,0-1.2,0.6-1.4c1.5-0.7,1.9,2.5,2.9,2.4
		c-1.2,0.2,2.1-1.1,1.5-0.5c0.5-0.5-0.2-3.2-0.4-3.6c-0.4-1.4-1.3-3-2.3-4.1c-0.6-0.7-2.4-1.2-2.6-2c1.1-0.6,0.9-0.9,0.6-2.1
		c3.4,0.1,6.8,1.8,10.2,1.2c1.8-0.3,3.4-1.6,5.2-2.1c2-0.5,3.8,0,5.8-0.1c3.7-0.2,11.5-2,12.6-6.4c0.7-2.9-4.3-4.9-0.7-9.2
		c1.1-1.3,3.1-1.3,4-2.4c1.3-1.4,1.1-2.9,1.6-4.8c0.1-0.5,4-8.2,3.4-8.6c-4.2-2.5-5.1,6.9-6,8.4c-0.9,1.4-8.3,7.2-9.6,6.8
		c-2.1-0.5-1.1-2.3-0.9-4.2c0.3-2.9,0.8-1.6-0.2-4.2c-0.6-1.5-7-11.1-9.5-7.2c-0.5,0.8,6.4,6.7,6.4,9.2c0,1-1.6,5.9-2.3,6.6
		c-1.1,1-3.8,2.2-5.7,0.7c-2-1.6-1.5-6.6-1.2-9.2c0.2-1.8,1.5-4.5,0.7-6.1c-0.5-1.1-4.3-2.7-5.1-1.2c-0.3,0.5,1.8,2.8,1.8,2.6
		c0.4,1.6,0.3,2.5,0.2,4.1c-0.1,1.4-0.7,7.7-2,8.3c-2.2,1.1-7.2-5.2-7.5-6.8c-0.1-0.6,1.3-8.1-1.4-7.7c-2.7,0.4-0.9,7.1-0.7,8.2
		c0.3,1.7,0.1,3,1,4.6c0.6,1.1,2.2,1.6,2.8,2.8c1,2.3,0.2,3.2-1.5,5.6c-2.3,3.3-3,3-6.5,2.5c-0.6-0.1-0.8-1.2-1.6-1.1
		c-1.4,0.1-1.6,2.6-2.9,3c-1.9,0.6-3.1-1.4-4.9-0.5c-8.1,3.9,9.5,6.8,9.5,7.5C-53.9,41.3-62.2,45.6-57.9,45.5
		C-57.9,45.9-58.4,45.5-57.9,45.5z"/>
	<linearGradient id="SVGID_7_" gradientUnits="userSpaceOnUse" x1="-47.3294" y1="16.7087" x2="-47.3294" y2="16.7087">
		<stop  offset="0" style="stop-color:#000000"/>
		<stop  offset="1" style="stop-color:#000000;stop-opacity:0"/>
	</linearGradient>
	<path fill="url(#SVGID_7_)" d="M-47.3,16.7"/>
</symbol>
<use xlink:href="#elg"  width="164.9" height="150.4" id="XMLID_2_" x="-82.5" y="-75.3" transform="matrix(1 0 0 -1 82.4689 75.1016)" overflow="visible"/>
</svg>
