<?xml version="1.0" encoding="utf-8"?>
<!-- Generator: Adobe Illustrator 18.1.1, SVG Export Plug-In . SVG Version: 6.00 Build 0)  -->
<svg version="1.1" id="Layer_1" xmlns="http://www.w3.org/2000/svg" xmlns:xlink="http://www.w3.org/1999/xlink" x="0px" y="0px"
	 viewBox="0 0 35.7 13.3" enable-background="new 0 0 35.7 13.3" xml:space="preserve">
<g>
	<g>
		<path fill="#DC6944" d="M6.3,5.4c0,0,1.4-0.2,3.6-0.4c1.1-0.1,2.3-0.2,3.7-0.2c1.3-0.1,2.8-0.1,4.2-0.1c1.4,0,2.9,0,4.2,0.1
			c1.3,0.1,2.6,0.1,3.7,0.2c2.2,0.2,3.6,0.4,3.6,0.4c0.7,0.1,1.2,0.8,1.1,1.5c-0.1,0.6-0.5,1-1.1,1.1c0,0-1.4,0.2-3.6,0.4
			c-1.1,0.1-2.3,0.2-3.7,0.2c-1.4,0.1-2.8,0.1-4.2,0.1c-1.4,0-2.9,0-4.2-0.1C12.3,8.5,11,8.4,9.9,8.3C7.8,8.1,6.3,7.9,6.3,7.9
			C5.6,7.8,5.1,7.2,5.2,6.5C5.3,5.9,5.8,5.5,6.3,5.4z"/>
		<g>
			<g>
				<circle fill="#FFFFFF" cx="6.6" cy="6.6" r="5.9"/>
				<path fill="#DC6944" d="M6.6,13.3c3.7,0,6.6-3,6.6-6.6S10.3,0,6.6,0C3,0,0,3,0,6.6S3,13.3,6.6,13.3C10.3,13.3,3,13.3,6.6,13.3z
					 M6.6,1.6c2.8,0,5.1,2.3,5.1,5.1s-2.3,5.1-5.1,5.1c-2.8,0-5.1-2.3-5.1-5.1S3.8,1.6,6.6,1.6C9.4,1.6,3.8,1.6,6.6,1.6z"/>
			</g>
		</g>
		<g>
			<g>
				<circle fill="#FFFFFF" cx="29" cy="6.6" r="5.9"/>
				<path fill="#DC6944" d="M29,13.3c-3.7,0-6.6-3-6.6-6.6S25.4,0,29,0c3.7,0,6.6,3,6.6,6.6S32.7,13.3,29,13.3
					C25.4,13.3,32.7,13.3,29,13.3z M29,1.6c-2.8,0-5.1,2.3-5.1,5.1s2.3,5.1,5.1,5.1c2.8,0,5.1-2.3,5.1-5.1S31.8,1.6,29,1.6
					C26.2,1.6,31.8,1.6,29,1.6z"/>
			</g>
		</g>
	</g>
</g>
</svg>
